<svg id="Icon_ionic-ios-mail" data-name="Icon ionic-ios-mail" xmlns="http://www.w3.org/2000/svg" width="50.439" height="34.919" viewBox="0 0 50.439 34.919">
  <path id="Path_463" data-name="Path 463" d="M53.4,10.388,40.355,23.677a.234.234,0,0,0,0,.339l9.13,9.724a1.573,1.573,0,0,1,0,2.231,1.581,1.581,0,0,1-2.231,0l-9.094-9.688a.249.249,0,0,0-.352,0L35.59,28.539a9.762,9.762,0,0,1-6.96,2.934,9.958,9.958,0,0,1-7.105-3.019l-2.134-2.17a.249.249,0,0,0-.352,0L9.947,35.971a1.581,1.581,0,0,1-2.231,0,1.573,1.573,0,0,1,0-2.231l9.13-9.724a.258.258,0,0,0,0-.339L3.787,10.388a.239.239,0,0,0-.412.17V37.148a3.891,3.891,0,0,0,3.88,3.88H49.934a3.891,3.891,0,0,0,3.88-3.88V10.558A.243.243,0,0,0,53.4,10.388Z" transform="translate(-3.375 -6.108)" fill="#d8b76f"/>
  <path id="Path_464" data-name="Path 464" d="M27.978,30.075a6.592,6.592,0,0,0,4.741-1.988L51.742,8.724a3.811,3.811,0,0,0-2.4-.849H6.626a3.786,3.786,0,0,0-2.4.849L23.249,28.087A6.593,6.593,0,0,0,27.978,30.075Z" transform="translate(-2.759 -7.875)" fill="#d8b76f"/>
</svg>
